<svg xmlns="http://www.w3.org/2000/svg" viewBox="0 0 64 64" role="img" aria-label="Munchbase">
  <defs>
    <linearGradient id="bg" x1="0" y1="0" x2="1" y2="1">
      <stop offset="0%" stop-color="#3b82f6"/>
      <stop offset="100%" stop-color="#1d4ed8"/>
    </linearGradient>
  </defs>
  <rect width="64" height="64" rx="16" fill="url(#bg)"/>
  <circle cx="32" cy="32" r="20" fill="#ffffff" opacity="0.14"/>
  <path d="M15 17v10c0 2.2 1.2 4 3 4v16h4V31c1.8 0 3-1.8 3-4V17h-3v9h-1v-9h-3v9h-1v-9h-2Zm28 0c-3 0-5 2.7-5 6v9c0 2.5 1.4 4.7 3.5 5.7V47h4V37.7c2.1-1 3.5-3.2 3.5-5.7v-9c0-3.3-2-6-6-6Z" fill="#ffffff"/>
</svg>
